<?xml version="1.0" encoding="UTF-8"?> <svg xmlns="http://www.w3.org/2000/svg" width="80" height="32" viewBox="0 0 80 32" fill="none"><g clip-path="url(#clip0_581_21089)"><path d="M29.0566 13.1553H32.6085V14.5742C33.2063 13.7653 34.5792 12.8784 36.3684 12.8784C39.8184 12.8784 42.4623 15.8937 42.4623 19.4887C42.4623 23.0836 39.8184 26.0989 36.3684 26.0989C34.5792 26.0989 33.2063 25.2121 32.6085 24.4031V31.1128H29.0566V13.1553ZM35.589 16.0408C33.6448 16.0408 32.3206 17.5116 32.3206 19.4843C32.3206 21.457 33.6448 22.9279 35.589 22.9279C37.5332 22.9279 38.8573 21.457 38.8573 19.4843C38.8573 17.5116 37.5376 16.0408 35.589 16.0408Z" fill="black"></path><path d="M46.1649 11.0788C44.947 11.0788 43.9106 10.0924 43.9106 8.87678C43.9106 7.66115 44.947 6.6748 46.1649 6.6748C47.3827 6.6748 48.4456 7.66115 48.4456 8.87678C48.4456 10.0924 47.4359 11.0788 46.1649 11.0788ZM44.4022 13.1553H47.954V25.8177H44.4022V13.1553Z" fill="black"></path><path d="M50.7305 6.82178H54.2823V25.8133H50.7305V6.82178Z" fill="black"></path><path d="M63.016 26.0945C59.256 26.0945 56.2002 23.1831 56.2002 19.4843C56.2002 15.7855 59.2604 12.874 63.016 12.874C66.7715 12.874 69.8317 15.7855 69.8317 19.4843C69.8317 23.1831 66.7715 26.0945 63.016 26.0945ZM63.016 22.8543C64.8804 22.8543 66.2312 21.4353 66.2312 19.4843C66.2312 17.5332 64.8849 16.1186 63.016 16.1186C61.147 16.1186 59.7742 17.5375 59.7742 19.4843C59.7742 21.431 61.147 22.8543 63.016 22.8543Z" fill="black"></path><path d="M77.7415 25.9647C74.9957 25.9647 72.7902 24.4722 72.7902 21.3834V16.1921H70.1729V13.1552H72.7902V9.63379H76.342V13.1552H79.9957V16.1921H76.342V20.6999C76.342 22.2443 77.0152 22.8543 78.5475 22.8543C79.1188 22.8543 79.5838 22.7764 80.0001 22.625V25.6879C79.4288 25.8652 78.7291 25.9647 77.7459 25.9647H77.7415Z" fill="black"></path><path d="M9.71656 32L6.61647 31.9913L6.64305 23.8064H8.62267C14.9734 23.8064 20.1461 19.1472 20.1639 13.4108C20.1816 8.12868 15.8547 3.66849 10.1019 3.03256C9.95128 3.01526 9.80514 3.12341 9.75199 3.28347C9.73871 3.32241 9.73428 3.36567 9.73428 3.40893V5.95266C13.4898 6.61023 16.3375 9.59955 16.3375 13.1729C16.3375 15.1499 15.4783 17.0966 13.977 18.5113C12.5509 19.8567 10.7086 20.5618 8.79539 20.4969L6.62976 20.3845V9.04581C4.58813 9.60387 3.10452 11.2391 3.10452 13.1686V28.8982H0V13.1686C0 9.58657 2.85651 6.59292 6.62533 5.94401V3.4046C6.62533 3.04986 6.68291 2.69513 6.79362 2.35769C7.29849 0.82626 8.83525 -0.15576 10.4473 0.0216093C17.7724 0.830586 23.2817 6.59292 23.264 13.4195C23.2418 20.484 17.2719 26.2766 9.73428 26.8L9.71656 32ZM9.72542 9.05446V17.4124C10.4827 17.274 11.209 16.902 11.8158 16.3309C12.7015 15.496 13.2285 14.315 13.2285 13.1686C13.2285 11.2478 11.7538 9.61252 9.72542 9.05013V9.05446Z" fill="#007EE3"></path></g><defs><clipPath id="clip0_581_21089"><rect width="80" height="32" fill="white"></rect></clipPath></defs></svg> 