<svg xmlns="http://www.w3.org/2000/svg" xmlns:xlink="http://www.w3.org/1999/xlink" width="480" viewBox="0 0 480 150" height="150"><defs><clipPath id="f"><path d="M 104 38 L 135 38 L 135 73 L 104 73 Z M 104 38"></path></clipPath><clipPath id="g"><path d="M 104.84375 38.144531 L 134.824219 39.167969 L 133.671875 72.898438 L 103.6875 71.875 Z M 104.84375 38.144531"></path></clipPath><clipPath id="h"><path d="M 104.84375 38.144531 L 134.824219 39.167969 L 133.671875 72.898438 L 103.6875 71.875 Z M 104.84375 38.144531"></path></clipPath><clipPath id="i"><path d="M 107 48 L 119 48 L 119 69 L 107 69 Z M 107 48"></path></clipPath><clipPath id="j"><path d="M 104.84375 38.144531 L 134.824219 39.167969 L 133.671875 72.898438 L 103.6875 71.875 Z M 104.84375 38.144531"></path></clipPath><clipPath id="k"><path d="M 104.84375 38.144531 L 134.824219 39.167969 L 133.671875 72.898438 L 103.6875 71.875 Z M 104.84375 38.144531"></path></clipPath><clipPath id="l"><path d="M 107 41 L 132 41 L 132 57 L 107 57 Z M 107 41"></path></clipPath><clipPath id="m"><path d="M 104.84375 38.144531 L 134.824219 39.167969 L 133.671875 72.898438 L 103.6875 71.875 Z M 104.84375 38.144531"></path></clipPath><clipPath id="n"><path d="M 104.84375 38.144531 L 134.824219 39.167969 L 133.671875 72.898438 L 103.6875 71.875 Z M 104.84375 38.144531"></path></clipPath><clipPath id="o"><path d="M 120.707031 41.957031 L 131.433594 49.546875 L 118.386719 56.324219 L 107.660156 48.734375 Z M 120.707031 41.957031"></path></clipPath><clipPath id="q"><path d="M 117 49 L 132 49 L 132 69 L 117 69 Z M 117 49"></path></clipPath><clipPath id="r"><path d="M 104.84375 38.144531 L 134.824219 39.167969 L 133.671875 72.898438 L 103.6875 71.875 Z M 104.84375 38.144531"></path></clipPath><clipPath id="s"><path d="M 104.84375 38.144531 L 134.824219 39.167969 L 133.671875 72.898438 L 103.6875 71.875 Z M 104.84375 38.144531"></path></clipPath><g id="a"><path d="M 8.515625 0 L 8.515625 -85.4375 L 27.234375 -85.4375 L 27.234375 0 Z M 8.515625 0"></path></g><g id="b"><path d="M 44.875 -62.40625 C 59.28125 -62.40625 66.484375 -53.882812 66.484375 -36.84375 L 66.484375 0 L 48.359375 0 L 48.359375 -36 C 48.359375 -40.238281 47.578125 -43.335938 46.015625 -45.296875 C 44.460938 -47.253906 42.003906 -48.234375 38.640625 -48.234375 C 34.640625 -48.234375 31.4375 -46.953125 29.03125 -44.390625 C 26.632812 -41.835938 25.4375 -38.398438 25.4375 -34.078125 L 25.4375 0 L 7.3125 0 L 7.3125 -43.4375 C 7.3125 -49.914062 6.992188 -55.71875 6.359375 -60.84375 L 23.40625 -60.84375 L 24.59375 -51.234375 C 26.757812 -54.835938 29.582031 -57.597656 33.0625 -59.515625 C 36.539062 -61.441406 40.476562 -62.40625 44.875 -62.40625 Z M 44.875 -62.40625"></path></g><g id="c"><path d="M 61.890625 -28.90625 L 21.828125 -28.90625 C 22.148438 -23.226562 23.628906 -19.085938 26.265625 -16.484375 C 28.898438 -13.890625 32.816406 -12.59375 38.015625 -12.59375 C 41.140625 -12.59375 44.257812 -13.113281 47.375 -14.15625 C 50.488281 -15.195312 53.367188 -16.710938 56.015625 -18.703125 L 60.8125 -6.484375 C 57.925781 -4.160156 54.34375 -2.335938 50.0625 -1.015625 C 45.789062 0.296875 41.5 0.953125 37.1875 0.953125 C 26.945312 0.953125 18.90625 -1.863281 13.0625 -7.5 C 7.226562 -13.132812 4.3125 -20.828125 4.3125 -30.578125 C 4.3125 -36.734375 5.570312 -42.226562 8.09375 -47.0625 C 10.613281 -51.90625 14.148438 -55.664062 18.703125 -58.34375 C 23.265625 -61.03125 28.425781 -62.375 34.1875 -62.375 C 42.738281 -62.375 49.492188 -59.59375 54.453125 -54.03125 C 59.410156 -48.476562 61.890625 -40.984375 61.890625 -31.546875 Z M 34.65625 -49.65625 C 31.21875 -49.65625 28.4375 -48.65625 26.3125 -46.65625 C 24.195312 -44.65625 22.820312 -41.738281 22.1875 -37.90625 L 46.296875 -37.90625 C 45.335938 -45.738281 41.457031 -49.65625 34.65625 -49.65625 Z M 34.65625 -49.65625"></path></g><g id="d"><path d="M 26.984375 -13.546875 L 59.375 -13.546875 L 59.375 0 L 5.75 0 L 5.75 -12.71875 L 36.46875 -47.25 L 6.234375 -47.25 L 6.234375 -60.8125 L 58.171875 -60.8125 L 58.171875 -48.578125 Z M 26.984375 -13.546875"></path></g><g id="e"><path d="M 68.25 -60.8125 L 68.25 0 L 50.375 0 L 50.375 -9 C 48.53125 -5.875 45.929688 -3.429688 42.578125 -1.671875 C 39.222656 0.078125 35.425781 0.953125 31.1875 0.953125 C 25.90625 0.953125 21.242188 -0.320312 17.203125 -2.875 C 13.171875 -5.4375 10.015625 -9.09375 7.734375 -13.84375 C 5.453125 -18.601562 4.3125 -24.101562 4.3125 -30.34375 C 4.3125 -36.582031 5.453125 -42.140625 7.734375 -47.015625 C 10.015625 -51.890625 13.191406 -55.664062 17.265625 -58.34375 C 21.347656 -61.03125 25.988281 -62.375 31.1875 -62.375 C 35.425781 -62.375 39.222656 -61.453125 42.578125 -59.609375 C 45.929688 -57.765625 48.53125 -55.285156 50.375 -52.171875 L 50.375 -60.8125 Z M 36.46875 -12.828125 C 40.9375 -12.828125 44.367188 -14.347656 46.765625 -17.390625 C 49.171875 -20.429688 50.375 -24.828125 50.375 -30.578125 C 50.375 -36.335938 49.171875 -40.753906 46.765625 -43.828125 C 44.367188 -46.910156 40.9375 -48.453125 36.46875 -48.453125 C 31.988281 -48.453125 28.507812 -46.851562 26.03125 -43.65625 C 23.550781 -40.457031 22.3125 -36.019531 22.3125 -30.34375 C 22.3125 -24.664062 23.53125 -20.328125 25.96875 -17.328125 C 28.40625 -14.328125 31.90625 -12.828125 36.46875 -12.828125 Z M 36.46875 -12.828125"></path></g><linearGradient xmlns:xlink="http://www.w3.org/1999/xlink" x1="14.797" gradientTransform="matrix(.91446 .0313 -.03087 .90173 93.905 25.239)" y1="22.918" x2="43.155" gradientUnits="userSpaceOnUse" y2="27.06" xlink:type="simple" xlink:actuate="onLoad" id="p" xlink:show="other"><stop stop-color="#00CBFF" offset="0"></stop><stop stop-color="#00CBFF" offset=".085"></stop><stop stop-color="#00CBFF" offset=".125"></stop><stop stop-color="#00CBFF" offset=".188"></stop><stop stop-color="#00CBFF" offset=".219"></stop><stop stop-color="#00CBFF" offset=".234"></stop><stop stop-color="#01C9FF" offset=".238"></stop><stop stop-color="#02C7FF" offset=".242"></stop><stop stop-color="#03C6FF" offset=".246"></stop><stop stop-color="#04C4FF" offset=".25"></stop><stop stop-color="#05C3FF" offset=".254"></stop><stop stop-color="#05C1FF" offset=".258"></stop><stop stop-color="#06C0FF" offset=".262"></stop><stop stop-color="#07BEFF" offset=".266"></stop><stop stop-color="#08BDFF" offset=".27"></stop><stop stop-color="#09BBFF" offset=".273"></stop><stop stop-color="#0ABAFF" offset=".277"></stop><stop stop-color="#0AB8FF" offset=".281"></stop><stop stop-color="#0BB7FF" offset=".285"></stop><stop stop-color="#0CB5FF" offset=".289"></stop><stop stop-color="#0DB4FF" offset=".293"></stop><stop stop-color="#0EB2FF" offset=".297"></stop><stop stop-color="#0FB1FF" offset=".301"></stop><stop stop-color="#0FAFFF" offset=".305"></stop><stop stop-color="#10AEFF" offset=".309"></stop><stop stop-color="#11ACFF" offset=".313"></stop><stop stop-color="#12ABFF" offset=".316"></stop><stop stop-color="#13A9FF" offset=".32"></stop><stop stop-color="#13A8FF" offset=".324"></stop><stop stop-color="#14A6FE" offset=".328"></stop><stop stop-color="#15A5FE" offset=".332"></stop><stop stop-color="#16A4FE" offset=".336"></stop><stop stop-color="#17A2FE" offset=".34"></stop><stop stop-color="#18A1FE" offset=".344"></stop><stop stop-color="#189FFE" offset=".348"></stop><stop stop-color="#199EFE" offset=".352"></stop><stop stop-color="#1A9CFE" offset=".355"></stop><stop stop-color="#1B9BFE" offset=".359"></stop><stop stop-color="#1C99FE" offset=".363"></stop><stop stop-color="#1D98FE" offset=".367"></stop><stop stop-color="#1D96FE" offset=".371"></stop><stop stop-color="#1E95FE" offset=".375"></stop><stop stop-color="#1F93FE" offset=".379"></stop><stop stop-color="#2092FE" offset=".383"></stop><stop stop-color="#2190FE" offset=".387"></stop><stop stop-color="#228FFE" offset=".391"></stop><stop stop-color="#228DFE" offset=".395"></stop><stop stop-color="#238CFE" offset=".398"></stop><stop stop-color="#248AFE" offset=".402"></stop><stop stop-color="#2589FE" offset=".406"></stop><stop stop-color="#2687FE" offset=".41"></stop><stop stop-color="#2686FE" offset=".414"></stop><stop stop-color="#2784FE" offset=".418"></stop><stop stop-color="#2883FE" offset=".422"></stop><stop stop-color="#2981FE" offset=".426"></stop><stop stop-color="#2A80FE" offset=".43"></stop><stop stop-color="#2B7EFE" offset=".434"></stop><stop stop-color="#2B7DFE" offset=".438"></stop><stop stop-color="#2C7BFE" offset=".441"></stop><stop stop-color="#2D7AFE" offset=".445"></stop><stop stop-color="#2E79FE" offset=".449"></stop><stop stop-color="#2F77FE" offset=".453"></stop><stop stop-color="#3076FE" offset=".457"></stop><stop stop-color="#3074FE" offset=".461"></stop><stop stop-color="#3173FE" offset=".465"></stop><stop stop-color="#3271FE" offset=".469"></stop><stop stop-color="#3370FE" offset=".473"></stop><stop stop-color="#346EFE" offset=".477"></stop><stop stop-color="#346DFE" offset=".48"></stop><stop stop-color="#356BFE" offset=".484"></stop><stop stop-color="#366AFE" offset=".488"></stop><stop stop-color="#3768FE" offset=".492"></stop><stop stop-color="#3867FE" offset=".496"></stop><stop stop-color="#3965FE" offset=".5"></stop><stop stop-color="#3964FE" offset=".504"></stop><stop stop-color="#3A62FE" offset=".508"></stop><stop stop-color="#3B61FE" offset=".512"></stop><stop stop-color="#3C5FFE" offset=".516"></stop><stop stop-color="#3D5EFE" offset=".52"></stop><stop stop-color="#3E5CFD" offset=".523"></stop><stop stop-color="#3E5BFD" offset=".527"></stop><stop stop-color="#3F59FD" offset=".531"></stop><stop stop-color="#4058FD" offset=".535"></stop><stop stop-color="#4156FD" offset=".539"></stop><stop stop-color="#4255FD" offset=".543"></stop><stop stop-color="#4353FD" offset=".547"></stop><stop stop-color="#4352FD" offset=".551"></stop><stop stop-color="#4450FD" offset=".555"></stop><stop stop-color="#454FFD" offset=".559"></stop><stop stop-color="#464EFD" offset=".563"></stop><stop stop-color="#474CFD" offset=".566"></stop><stop stop-color="#474BFD" offset=".57"></stop><stop stop-color="#4849FD" offset=".574"></stop><stop stop-color="#4948FD" offset=".578"></stop><stop stop-color="#4A46FD" offset=".582"></stop><stop stop-color="#4B45FD" offset=".586"></stop><stop stop-color="#4C43FD" offset=".59"></stop><stop stop-color="#4C42FD" offset=".594"></stop><stop stop-color="#4D40FD" offset=".598"></stop><stop stop-color="#4E3FFD" offset=".602"></stop><stop stop-color="#4F3DFD" offset=".605"></stop><stop stop-color="#503CFD" offset=".609"></stop><stop stop-color="#513AFD" offset=".613"></stop><stop stop-color="#5139FD" offset=".617"></stop><stop stop-color="#5237FD" offset=".621"></stop><stop stop-color="#5336FD" offset=".625"></stop><stop stop-color="#5336FD" offset=".75"></stop><stop stop-color="#5336FD" offset=".915"></stop><stop stop-color="#5336FD" offset="1"></stop></linearGradient></defs><g fill="#FFF"><use xmlns:xlink="http://www.w3.org/1999/xlink" x="5.793" y="135.942" xlink:href="#a" xlink:type="simple" xlink:actuate="onLoad" xlink:show="embed"></use></g><g fill="#FFF"><use xmlns:xlink="http://www.w3.org/1999/xlink" x="41.671" y="135.942" xlink:href="#b" xlink:type="simple" xlink:actuate="onLoad" xlink:show="embed"></use></g><g fill="#FFF"><use xmlns:xlink="http://www.w3.org/1999/xlink" x="202.018" y="135.765" xlink:href="#c" xlink:type="simple" xlink:actuate="onLoad" xlink:show="embed"></use></g><g fill="#FFF"><use xmlns:xlink="http://www.w3.org/1999/xlink" x="267.979" y="135.765" xlink:href="#d" xlink:type="simple" xlink:actuate="onLoad" xlink:show="embed"></use></g><g fill="#FFF"><use xmlns:xlink="http://www.w3.org/1999/xlink" x="331.541" y="135.765" xlink:href="#d" xlink:type="simple" xlink:actuate="onLoad" xlink:show="embed"></use></g><g fill="#FFF"><use xmlns:xlink="http://www.w3.org/1999/xlink" x="395.103" y="135.765" xlink:href="#e" xlink:type="simple" xlink:actuate="onLoad" xlink:show="embed"></use></g><g clip-path="url(#f)"><g clip-path="url(#g)"><g clip-path="url(#h)"><path fill="#FFF" d="M 120.785156 38.667969 C 120.585938 38.6875 120.398438 38.746094 120.222656 38.839844 L 105.359375 46.558594 C 104.910156 46.796875 104.621094 47.25 104.601562 47.753906 L 104.109375 62.132812 C 104.09375 62.613281 104.320312 63.070312 104.71875 63.34375 L 116.9375 71.988281 C 117.382812 72.292969 117.960938 72.324219 118.433594 72.074219 L 133.300781 64.355469 C 133.75 64.117188 134.039062 63.664062 134.058594 63.160156 L 134.550781 48.78125 C 134.566406 48.300781 134.335938 47.84375 133.9375 47.570312 L 121.71875 38.925781 C 121.449219 38.734375 121.117188 38.644531 120.785156 38.667969 Z M 120.785156 38.667969"></path></g></g></g><g clip-path="url(#i)"><g clip-path="url(#j)"><g clip-path="url(#k)"><path fill="#00CBFF" d="M 107.660156 48.734375 L 118.386719 56.324219 L 117.953125 68.949219 L 107.226562 61.359375 Z M 107.660156 48.734375"></path></g></g></g><g clip-path="url(#l)"><g clip-path="url(#m)"><g clip-path="url(#n)"><g clip-path="url(#o)"><path fill="url(#p)" d="M 107.6875 41.144531 L 107.167969 56.308594 L 131.40625 57.136719 L 131.925781 41.976562 Z M 107.6875 41.144531"></path></g></g></g></g><g clip-path="url(#q)"><g clip-path="url(#r)"><g clip-path="url(#s)"><path fill="#5336FD" d="M 131.433594 49.546875 L 131.003906 62.171875 L 117.953125 68.949219 L 118.386719 56.324219 Z M 131.433594 49.546875"></path></g></g></g><path fill="#D9D9D9" d="M 170.875 135.5 L 224.261719 2.742188 L 147.523438 123.511719 Z M 170.875 135.5"></path><path fill="#FFF" d="M 171.765625 135.574219 L 159.730469 129.460938 L 223.554688 3.773438 Z M 171.765625 135.574219"></path><path fill="#FFF" d="M 117.113281 72.152344 L 133.671875 63.355469 L 172.007812 135.515625 L 155.449219 144.3125 Z M 117.113281 72.152344"></path></svg>